<svg xmlns="http://www.w3.org/2000/svg" width="640" height="480" viewBox="0 0 640 480"><style type="text/css">.st0{fill:#FFFFFF;} .st1{fill:#026937;} .st2{fill:#77BC1F;}</style><path class="st0" d="M0 0h640v480h-640z"/><path class="st1" d="M45.7 223.6c-3.6.5-7.5 1.1-11.6 1.7l-5-13-5.7 14.8c-4.4.8-8.9 1.7-13.2 2.7l13.5-31.7h11.2l10.8 25.5zm14.6 2v.2c0 9.3 6.9 17 16.7 17v12c-9.1 0-16.8-3.8-22.1-9.7l3.7 8.8h-13.5l-4.4-11.4h-23.1l-4.4 11.4h-13.2l4.9-11.5c12.8-5.7 27.2-10.6 42.7-14.3l-.1-1.7v-.2c0-15.7 12.3-28.6 29.4-28.6v11.2c-9.8 0-16.6 7.6-16.6 16.8zm58.4-7.6l2.4-2.9c2.2 1.9 4.4 3 7.2 3 2.5 0 4-1.1 4-2.9v-.1c0-1.6-.9-2.5-5.1-3.5-4.8-1.2-7.6-2.6-7.6-6.8v-.1c0-3.9 3.3-6.6 7.8-6.6 3.3 0 5.9 1 8.3 2.9l-2.1 3c-2-1.5-4.1-2.3-6.2-2.3-2.3 0-3.7 1.2-3.7 2.7v.1c0 1.8 1 2.5 5.4 3.6 4.8 1.2 7.3 2.9 7.3 6.7v.1c0 4.3-3.3 6.8-8.1 6.8-3.5-.1-6.8-1.3-9.6-3.7zm20.9-5.2c0-4.9 3.8-9 8.9-9 3.3 0 5.3 1.2 6.9 3l-2.4 2.6c-1.2-1.3-2.5-2.1-4.5-2.1-2.9 0-4.9 2.5-4.9 5.5v.1c0 3.1 2.1 5.5 5.1 5.5 1.9 0 3.2-.9 4.5-2.1l2.4 2.3c-1.7 1.9-3.7 3.2-7 3.2-5.2-.1-9-4.1-9-9zm19.3-15.2h3.9v9.2c1.1-1.6 2.7-3 5.4-3 3.9 0 6.1 2.6 6.1 6.6v10.9h-3.9v-9.8c0-2.7-1.3-4.2-3.7-4.2-2.3 0-3.9 1.6-3.9 4.3v9.7h-3.9v-23.7zm33.6 15.2c0-3.1-2.2-5.6-5.3-5.6-3.2 0-5.2 2.5-5.2 5.5v.1c0 3 2.2 5.5 5.2 5.5 3.2 0 5.3-2.5 5.3-5.5zm-14.4 0c0-5 3.9-9 9.2-9 5.3 0 9.1 4 9.1 8.9v.1c0 4.9-3.9 8.9-9.2 8.9-5.2 0-9.1-4-9.1-8.9zm35.6 0c0-3.1-2.2-5.6-5.3-5.6-3.2 0-5.2 2.5-5.2 5.5v.1c0 3 2.2 5.5 5.2 5.5 3.3 0 5.3-2.5 5.3-5.5zm-14.3 0c0-5 3.9-9 9.2-9 5.3 0 9.1 4 9.1 8.9v.1c0 4.9-3.9 8.9-9.2 8.9-5.3 0-9.1-4-9.1-8.9zm22.4-15.2h3.9v23.7h-3.9v-23.7zm32.2 15.2c0-3.1-2.2-5.6-5.3-5.6-3.2 0-5.2 2.5-5.2 5.5v.1c0 3 2.2 5.5 5.2 5.5 3.3 0 5.3-2.5 5.3-5.5zm-14.4 0c0-5 3.9-9 9.2-9 5.3 0 9.1 4 9.1 8.9v.1c0 4.9-3.9 8.9-9.2 8.9-5.2 0-9.1-4-9.1-8.9zm22.8-5.3h-2.2v-3.3h2.2v-1.2c0-1.9.5-3.3 1.4-4.3.9-.9 2.2-1.4 3.9-1.4 1.4 0 2.3.2 3.2.5v3.3c-.8-.3-1.5-.4-2.3-.4-1.5 0-2.3.8-2.3 2.6v.9h4.6v3.3h-4.5v13.8h-3.9v-13.8h-.1zm-142.1 23.5h4.2l6.9 10.8 7-10.8h4.2v22.8h-4v-16.3l-7.2 10.7h-.1l-7.1-10.7v16.3h-3.9v-22.8zm39.6 13c-.3-2.5-1.8-4.5-4.4-4.5-2.4 0-4.1 1.9-4.5 4.5h8.9zm-12.7 1.3c0-5 3.5-9 8.4-9 5.5 0 8.2 4.3 8.2 9.2 0 .4 0 .7-.1 1.1h-12.6c.4 2.8 2.4 4.4 4.9 4.4 1.9 0 3.3-.7 4.6-2l2.3 2c-1.6 1.9-3.9 3.2-7 3.2-4.8 0-8.7-3.6-8.7-8.9zm33.6-.1c0-3.4-2.3-5.6-5-5.6s-4.9 2.1-4.9 5.5v.1c0 3.3 2.3 5.5 4.9 5.5 2.6 0 5-2.2 5-5.5zm-13.9 0c0-5.8 3.9-9 8-9 2.8 0 4.6 1.4 5.9 3v-9.2h3.9v23.7h-3.9v-2.9c-1.3 1.8-3.1 3.2-5.9 3.2-4.1.2-8-3.1-8-8.8zm22.8-8.6h3.9v17.2h-3.9v-17.2zm-.2-6.3h4.2v3.7h-4.2v-3.7zm19.7 16.3c-1-.4-2.4-.7-3.9-.7-2.5 0-3.9 1-3.9 2.7v.1c0 1.6 1.5 2.5 3.3 2.5 2.6 0 4.6-1.5 4.6-3.6v-1h-.1zm-.1 7.2v-2.1c-1.2 1.4-3 2.5-5.6 2.5-3.3 0-6.1-1.9-6.1-5.3v-.1c0-3.8 3-5.6 7-5.6 2.1 0 3.4.3 4.7.7v-.3c0-2.4-1.5-3.7-4.2-3.7-1.9 0-3.3.4-4.9 1.1l-1.1-3.2c1.9-.8 3.7-1.4 6.5-1.4 5.1 0 7.5 2.7 7.5 7.2v10.2h-3.8zm29.1-17.4c0-1.6-1.1-2.6-2.6-2.6-1.6 0-2.7 1.1-2.7 2.7v.1c0 1.1.5 2 1.7 3.4 2.4-.9 3.6-1.9 3.6-3.6zm.2 12.4l-5.1-5.2c-2.1.9-3 2.3-3 3.8v.1c0 1.9 1.6 3.3 3.8 3.3 1.5 0 3-.7 4.3-2zm2.2 2.4c-2 1.8-4.2 3-7 3-4.2 0-7.4-2.6-7.4-6.5v-.1c0-2.9 1.7-5 4.8-6.4-1.3-1.7-1.9-3.1-1.9-4.7v-.1c0-3.1 2.5-5.7 6.5-5.7 3.6 0 6 2.4 6 5.5v.1c0 3-2 4.8-5 5.9l3.9 4c.9-1.3 1.7-2.8 2.4-4.4l3 1.6c-.9 1.8-1.9 3.6-3.1 5.2l3.6 3.6-3 2.1-2.8-3.1zm28.2-1c4.8 0 7.9-3.2 7.9-7.7v-.1c0-4.5-3.1-7.7-7.9-7.7h-4.5v15.5h4.5zm-8.5-19.2h8.5c7.2 0 12.1 4.9 12.1 11.3v.1c0 6.4-4.9 11.4-12.1 11.4h-8.5v-22.8zm36.7 13c-.3-2.5-1.8-4.5-4.4-4.5-2.4 0-4.1 1.9-4.5 4.5h8.9zm-12.7 1.3c0-5 3.5-9 8.4-9 5.5 0 8.2 4.3 8.2 9.2 0 .4 0 .7-.1 1.1h-12.6c.4 2.8 2.4 4.4 4.9 4.4 1.9 0 3.3-.7 4.6-2l2.3 2c-1.6 1.9-3.9 3.2-7 3.2-4.8 0-8.7-3.6-8.7-8.9zm19.1 6.3l1.8-2.7c1.9 1.4 3.9 2.1 5.6 2.1 1.7 0 2.7-.7 2.7-1.9v-.1c0-1.3-1.8-1.8-3.8-2.4-2.5-.7-5.4-1.8-5.4-5v-.1c0-3.3 2.7-5.2 6.1-5.2 2.1 0 4.5.7 6.3 1.9l-1.6 2.8c-1.7-1-3.4-1.6-4.8-1.6-1.5 0-2.4.7-2.4 1.7v.1c0 1.2 1.9 1.8 3.9 2.4 2.5.8 5.3 1.9 5.3 5v.1c0 3.6-2.8 5.4-6.4 5.4-2.5 0-5.2-.9-7.3-2.5zm17.7-15h3.9v17.2h-3.9v-17.2zm-.2-6.3h4.2v3.7h-4.2v-3.7zm22 14.1c0-2.9-2.3-4.8-5-4.8s-4.9 1.9-4.9 4.7v.1c0 2.8 2.2 4.7 4.9 4.7s5-1.9 5-4.7zm-13.1 12.6l1.5-3c1.8 1.1 3.8 1.8 6.1 1.8 3.5 0 5.4-1.8 5.4-5.3v-1.3c-1.4 1.9-3.2 3.2-6 3.2-4 0-7.8-3-7.8-8v-.1c0-5.1 3.8-8.1 7.8-8.1 2.9 0 4.7 1.3 6 2.9v-2.6h3.9v13.6c0 2.9-.7 5-2.2 6.5-1.6 1.6-4 2.3-7.1 2.3-2.7.2-5.3-.6-7.6-1.9zm21.9-20.4h3.9v2.7c1.1-1.6 2.7-3 5.4-3 3.9 0 6.1 2.6 6.1 6.6v10.9h-3.9v-9.8c0-2.7-1.3-4.2-3.7-4.2-2.3 0-3.9 1.6-3.9 4.3v9.7h-3.9v-17.2z"/><path class="st2" d="M97.4 253.7l-.1.1v-55.3h2.6v55.3h-2.6l.1-.1z"/></svg>