<svg xmlns="http://www.w3.org/2000/svg" width="499" height="373" viewBox="0 0 499 373"><style type="text/css">.st0{fill:#FFFFFF;} .st1{opacity:0.3;fill:#92B2D3;} .st2{fill:none;stroke:#DB7C4A;stroke-width:2;stroke-linecap:round;stroke-linejoin:round;stroke-miterlimit:10;} .st3{fill:none;stroke:#DB7C4A;stroke-width:3;stroke-linecap:round;stroke-linejoin:round;stroke-miterlimit:10;} .st4{fill:none;stroke:#DB7C4A;stroke-width:5;stroke-linecap:round;stroke-linejoin:round;stroke-miterlimit:10;} .st5{fill:none;stroke:#DB7C4A;stroke-width:3.9;stroke-linecap:round;stroke-linejoin:round;stroke-miterlimit:10;} .st6{fill:#DB7C4A;} .st7{fill:#92B2D3;} .st8{fill:none;stroke:#FFFFFF;stroke-width:2;stroke-linecap:round;stroke-linejoin:round;stroke-miterlimit:10;} .st9{fill:none;stroke:#D3602A;stroke-width:3;stroke-miterlimit:10;} .st10{fill:#FFFFFF;stroke:#D3602A;stroke-width:3;stroke-miterlimit:10;} .st11{fill:#DB7C4A;stroke:#231F20;stroke-width:0.3966;stroke-miterlimit:10;} .st12{fill:none;} .st13{fill:#F2D1BC;} .st14{fill:none;stroke:#000000;stroke-width:0.135;stroke-miterlimit:10;} .st15{fill:none;stroke:#92B2D3;stroke-width:0.72;stroke-miterlimit:10;} .st16{fill:#DB7C4A;stroke:#DB7C4A;stroke-width:0.275;stroke-linecap:round;stroke-linejoin:round;stroke-miterlimit:10;}</style><circle class="st1" cx="249.5" cy="186.5" r="90.4"/><circle class="st6" cx="250.7" cy="187.8" r="63.3"/><path class="st12" d="M185.2 155.4h132.7v75h-132.7z"/><path class="st0" d="M245.2 204.4c1.7-.9 3.7-1.4 6-1.4 1 0 1.9.1 2.7.2.8.1 1.8.5 3.2 1.2.7 1.5 1.1 3.1 1 4.7.2 1.4-.2 3-1 4.6-1.2.6-2.2 1-3.1 1.2-.8.1-1.7.2-2.8.2-2.3 0-4.3-.5-6-1.4-.5-1-.8-2.6-.8-4.6 0-2.2.3-3.7.8-4.7zm1.3-7l-1.8-35.1c3.1-2.3 7.6-3.4 13.2-3.4l.7 1-2.8 37.6c-.6.2-1.4.4-2.2.4-.8.1-1.7.1-2.6.1-.9 0-1.7 0-2.5-.1-.7-.1-1.4-.3-2-.5z"/></svg>