<svg xmlns="http://www.w3.org/2000/svg" width="640" height="480" viewBox="0 0 640 480"><style type="text/css">.st0{fill:#089857;} .st1{fill:#080808;} .st2{fill:#0D0C0C;} .st3{fill:#050505;} .st4{fill:#070707;} .st5{fill:#090909;} .st6{fill:#0C0B0B;} .st7{fill:#0E0E0E;} .st8{fill:#101010;} .st9{fill:#292727;} .st10{fill:#EBE9E9;}</style><path class="st0" d="M157.6 229c-.7-8.4 8-16.3 17-16.3 8.9 0 16.4 7.8 16.4 16.9 0 9.4-7.6 16.5-17.3 16.5-8.8 0-17-8.8-16.1-17.1z"/><path class="st1" d="M23.5 244.5c.5-9.1 2.8-18 4-27l1.8-11.6c.3-2 1.1-3 3.2-2.9 10.5.4 8.5-2 10.2 8.3l6 35.7c.3 1.6.5 3.3.7 4.7-1.2 1.4-2.6.9-3.9.9-4.4 0-4.3 0-5.1-4.5-.2-1.4.3-3.5-1.4-3.9-2.5-.6-5.2-.7-7.7.1-.8.2-.7 1.2-.9 1.9-.4 1.4.2 3-1 4.2-5.6 1.5-6.6.5-5.9-5.9z"/><path class="st2" d="M71.3 227.9v14c0 2.3.8 4 3.5 4.1 2.2.1 3.7-.8 3.9-3 .2-1.5.1-3 .1-4.5.1-4 .1-4 4-4 3.5 0 3.5 0 3.6 3.7 0 1.7 0 3.4-.1 5-.6 6.1-4.3 9.8-10.6 10.1-5.5.3-11.1-1.8-12.1-8.9-.3-2-.6-4-.6-6.1v-20.7c0-2.1.2-4.1.6-6.1 1.5-6.9 4.6-9 11.7-9.3 5.2-.2 9.9 3.8 10.8 9.2.2 1.5.2 3 .2 4.5 0 4.1-.1 4-4 4.1-2.6.1-3.9-.7-3.7-3.4.1-1.1.1-2.2 0-3.3-.2-2.2-1.5-3.3-3.7-3.2-2.3 0-3.6 1.2-3.6 3.3-.1 4.9 0 9.7 0 14.5z"/><path class="st3" d="M193.1 203.5c1.7-.2 2.4-.4 3.1-.4h36.2c3.8 0 3.9.1 3.9 4v14.5c0 1.9-.3 3.1-2.7 3.1-8.3-.1-16.7 0-25 0-1.1 0-2.1 0-2.6-1.4-2.8-7.4-5.9-14.5-12.9-19.8z"/><path class="st4" d="M155.7 203.1c-2.4 2.5-4.2 4.3-5.9 6.2-1.7 1.8-3.8 1.1-5.8 1.1-7.1.2-6.1-1-6.2 6.2v5c0 1.3.3 2.3 1.8 2.1 3.4-.3 2.8 2.1 2.7 4.1-.1 1.7.6 4-2.5 3.7-1.9-.2-2.1 1-2 2.5v4.5c.1 2.2-.5 4.9.5 6.5 1.2 2 4.1.6 6.3.8 1.4.1 2.5.3 3.3 1.5 1.1 1.7 2.5 3.2 4.2 5.4h-20.4c-1.7 0-2.3-.8-2.2-2.4v-44.1c0-1.8.1-3.2 2.6-3.2 7.5.1 15.1.1 23.6.1z"/><path class="st5" d="M195.5 253.6c4.9-4.4 7.1-9.5 9.2-14.7.3-.7.7-1.3.9-2 .6-1.7-.1-4.1 1.4-5.2 1.7-1.2 4-.4 6-.4 4.3-.1 8.6 0 12.9 0 1.8 0 2.7.5 2.7 2.5-.1 5.8 0 11.6 0 17.3 0 1.9-.8 2.6-2.7 2.6-9.7-.1-19.6-.1-30.4-.1z"/><path class="st6" d="M114.2 203c3 0 6-.1 8.9 0 1.2 0 3-.6 3.3 1.1.3 1.8.3 3.8-.2 5.4-.5 1.4-2.3.6-3.5.7-4.2.2-4.2.2-4.2 4.3v34.6c0 1.2.5 2.9-1.2 3.3-2 .4-4.1.7-6-.2-1.1-.6-.7-2-.7-3.1v-27.3c0-2.8-.1-5.6 0-8.4.1-2.5-.9-3.4-3.3-3.2h-1.1c-3.8-.2-5.3-2.4-4.1-6 .5-1.4 1.6-1.3 2.7-1.3 3.1.1 6.2.1 9.4.1z"/><path class="st7" d="M21.1 246.4c0 .5.1.9.1 1.3-1 5.1-1.1 5.1-6.4 5.1-3.9 0-7.8-.1-11.7 0-2 0-3.1-.4-3-2.7.1-14.7.1-29.4 0-44.1 0-2.2.7-2.8 2.9-2.9 5.1-.1 5.1-.2 5.1 5.2v31.8c0 6.8-.8 5.6 6 5.8 2.3 0 4.7-.7 7 .5z"/><path class="st8" d="M98.8 227.4c0 7.4-.1 14.9.1 22.3.1 3.3-1.8 3-3.9 3-2 0-4.1.4-4.1-2.9.1-14.5.1-29 0-43.5 0-2.3.7-3.3 3.1-3.3 4.6-.1 4.7-.1 4.8 4.4.1 6.7 0 13.3 0 20z"/><path class="st9" d="M149.9 192.7c-3.8 8.5-4.9 9.1-12.2 7.6l4.1-6.6c.5-.8 1.2-1.4 2.2-1.4 2 .2 4-.3 5.9.4z"/><path class="st7" d="M23.5 244.5c.4 5.7.4 5.7 5.9 6 0 1.2-.2 2.3-1.7 2.2-1.8-.1-3.7.4-5.9-.6 1-2.4.1-5.2 1.7-7.6z"/><path class="st10" d="M38.5 236.5c-2.4.6-4.4.5-6.6.1 1.1-7.3 2.2-14.4 3.3-21.4h.5c.9 7 1.8 14 2.8 21.3z"/></svg>