<svg xmlns="http://www.w3.org/2000/svg" width="499" height="373" viewBox="0 0 499 373"><style type="text/css">.st0{fill:#FFFFFF;} .st1{opacity:0.3;fill:#92B2D3;} .st2{fill:none;stroke:#DB7C4A;stroke-width:2;stroke-linecap:round;stroke-linejoin:round;stroke-miterlimit:10;} .st3{fill:none;stroke:#DB7C4A;stroke-width:3;stroke-linecap:round;stroke-linejoin:round;stroke-miterlimit:10;} .st4{fill:none;stroke:#DB7C4A;stroke-width:5;stroke-linecap:round;stroke-linejoin:round;stroke-miterlimit:10;} .st5{fill:none;stroke:#DB7C4A;stroke-width:3.9;stroke-linecap:round;stroke-linejoin:round;stroke-miterlimit:10;} .st6{fill:#DB7C4A;} .st7{fill:#92B2D3;} .st8{fill:none;stroke:#FFFFFF;stroke-width:2;stroke-linecap:round;stroke-linejoin:round;stroke-miterlimit:10;} .st9{fill:none;stroke:#D3602A;stroke-width:3;stroke-miterlimit:10;} .st10{fill:#FFFFFF;stroke:#D3602A;stroke-width:3;stroke-miterlimit:10;} .st11{fill:#DB7C4A;stroke:#231F20;stroke-width:0.3966;stroke-miterlimit:10;} .st12{fill:none;} .st13{fill:#F2D1BC;} .st14{fill:none;stroke:#000000;stroke-width:0.135;stroke-miterlimit:10;} .st15{fill:none;stroke:#92B2D3;stroke-width:0.72;stroke-miterlimit:10;} .st16{fill:#DB7C4A;stroke:#DB7C4A;stroke-width:0.275;stroke-linecap:round;stroke-linejoin:round;stroke-miterlimit:10;} .st17{fill:none;stroke:#DB7C4A;stroke-width:5.1714;stroke-linecap:round;stroke-linejoin:round;stroke-miterlimit:10;} .st18{fill:#D3602A;}</style><circle class="st1" cx="249.5" cy="186.5" r="90.4"/><path class="st10" d="M274.4 217.7c2.2 4.8 5.1 8.6 7 10.9.7.9 0 2.2-1.1 2.1-12.8-1-20.3-4.5-24.7-8-.3-.2-.6-.3-.9-.3-1.7.2-3.4.3-5.1.3-26.2 0-47.4-19.3-47.4-43 0-23.8 21.2-43 47.4-43s47.4 19.3 47.4 43c0 15.3-8.7 28.7-21.9 36.3-.7.4-1 1.1-.7 1.7z"/></svg>