<svg xmlns="http://www.w3.org/2000/svg" width="499" height="373" viewBox="0 0 499 373"><style type="text/css">.st0{fill:#FFFFFF;} .st1{opacity:0.3;fill:#92B2D3;} .st2{fill:none;stroke:#DB7C4A;stroke-width:2;stroke-linecap:round;stroke-linejoin:round;stroke-miterlimit:10;} .st3{fill:none;stroke:#DB7C4A;stroke-width:3;stroke-linecap:round;stroke-linejoin:round;stroke-miterlimit:10;} .st4{fill:none;stroke:#DB7C4A;stroke-width:5;stroke-linecap:round;stroke-linejoin:round;stroke-miterlimit:10;} .st5{fill:none;stroke:#DB7C4A;stroke-width:3.9;stroke-linecap:round;stroke-linejoin:round;stroke-miterlimit:10;} .st6{fill:#DB7C4A;} .st7{fill:#92B2D3;} .st8{fill:none;stroke:#FFFFFF;stroke-width:2;stroke-linecap:round;stroke-linejoin:round;stroke-miterlimit:10;} .st9{fill:none;stroke:#D3602A;stroke-width:3;stroke-miterlimit:10;} .st10{fill:#FFFFFF;stroke:#D3602A;stroke-width:3;stroke-miterlimit:10;} .st11{fill:#DB7C4A;stroke:#231F20;stroke-width:0.3966;stroke-miterlimit:10;} .st12{fill:none;} .st13{fill:#F2D1BC;} .st14{fill:none;stroke:#000000;stroke-width:0.135;stroke-miterlimit:10;} .st15{fill:none;stroke:#92B2D3;stroke-width:0.72;stroke-miterlimit:10;} .st16{fill:#DB7C4A;stroke:#DB7C4A;stroke-width:0.275;stroke-linecap:round;stroke-linejoin:round;stroke-miterlimit:10;} .st17{fill:none;stroke:#DB7C4A;stroke-width:5.1714;stroke-linecap:round;stroke-linejoin:round;stroke-miterlimit:10;} .st18{fill:#D3602A;} .st19{fill:none;stroke:#D3602A;stroke-width:5;stroke-linecap:round;stroke-linejoin:round;stroke-miterlimit:10;}</style><path class="st0" d="M-1173.9-1891.2h709.8v1138.8h-709.8z"/><circle class="st1" cx="-950" cy="-1725.2" r="90.4"/><circle class="st2" cx="-1035.8" cy="-1730.7" r="1.6"/><circle class="st2" cx="-950.6" cy="-1730.7" r="1.6"/><circle class="st3" cx="-993.4" cy="-1784.4" r="2.4"/><path class="st2" d="M-993.4-1784.4l85.6 106.8"/><path class="st4" d="M-1035.8-1730.7s37.2-61.5 85.2 0l85.2-1.7"/><circle class="st3" cx="-907.8" cy="-1677.6" r="2.4"/><circle class="st5" cx="-950.6" cy="-1730.7" r="3.1"/><circle class="st1" cx="-335.9" cy="-1716.2" r="90.4"/><path class="st6" d="M-308.5-1688l-56.1-42.7c-1.1-.8-1.3-2.4-.5-3.5l37.8-49.7c.8-1.1 2.4-1.3 3.5-.5l56.1 42.7c1.1.8 1.3 2.4.5 3.5l-37.8 49.7c-.8 1.1-2.4 1.3-3.5.5z"/><path class="st0" d="M-323.9-1774.7l45.6 34.7c1.1.8 1.3 2.4.5 3.5l-22.5 29.6c-.8 1.1-2.4 1.3-3.5.5l-45.6-34.7c-1.1-.8-1.3-2.4-.5-3.5l22.5-29.6c.9-1.1 2.4-1.3 3.5-.5z"/><path class="st6" d="M-318.6-1673.5h-70.5c-1.4 0-2.5-1.1-2.5-2.5v-62.4c0-1.4 1.1-2.5 2.5-2.5h70.5c1.4 0 2.5 1.1 2.5 2.5v62.4c0 1.4-1.2 2.5-2.5 2.5z"/><path class="st0" d="M-383.3-1733.2h57.3c1.4 0 2.5 1.1 2.5 2.5v37.2c0 1.4-1.1 2.5-2.5 2.5h-57.3c-1.4 0-2.5-1.1-2.5-2.5v-37.2c0-1.3 1.1-2.5 2.5-2.5z"/><circle class="st1" cx="-950" cy="-274.3" r="90.4"/><path class="st6" d="M-908.1-274c0 18.3-11.7 33.9-28 39.8v13.8h-25.3v-12.8c-18-4.8-31.3-21.3-31.3-40.9 0-23.4 18.9-42.3 42.3-42.3 23.3.1 42.3 19 42.3 42.4z"/><path class="st7" d="M-937.3-214.4h-23.1c-1 0-1.9-.8-1.9-1.9 0-1 .8-1.9 1.9-1.9h23.1c1 0 1.9.8 1.9 1.9-.1 1.1-.9 1.9-1.9 1.9z"/><path class="st0" d="M-951.7-344.9l.7 23.1c0 1-.8 1.9-1.8 1.9s-1.9-.8-1.9-1.8l-.7-23.1c0-1 .8-1.9 1.8-1.9s1.8.8 1.9 1.8zM-983.7-339.5l11.5 20c.5.9.2 2-.7 2.6-.9.5-2 .2-2.6-.7l-11.5-20c-.5-.9-.2-2 .7-2.6.9-.5 2.1-.2 2.6.7zM-931.7-319.8l6-22.3c.3-1 1.3-1.6 2.3-1.3 1 .3 1.6 1.3 1.3 2.3l-6 22.3c-.3 1-1.3 1.6-2.3 1.3-1-.3-1.6-1.3-1.3-2.3z"/><path class="st7" d="M-937.3-208.2h-23.1c-1 0-1.9-.8-1.9-1.9 0-1 .8-1.9 1.9-1.9h23.1c1 0 1.9.8 1.9 1.9-.1 1.1-.9 1.9-1.9 1.9z"/><path class="st1" d="M-859.5-745.7c0 32.1-16.7 60.2-41.8 76.3-14 9-30.7 14.2-48.6 14.2-11.1 0-21.8-2-31.6-5.7-34.4-12.8-58.8-45.9-58.8-84.8 0-9 1.3-17.6 3.7-25.8 4.8-16.1 14-30.4 26.1-41.3 5-4.5 10.6-8.5 16.6-11.9 4-2.2 8.1-4.1 12.4-5.7 9.8-3.7 20.5-5.7 31.6-5.7 8.5 0 16.8 1.2 24.6 3.4 6.8 1.9 13.3 4.6 19.4 8 17.9 10 32 25.8 39.8 44.9 1.1 2.7 2.1 5.5 2.9 8.3.5 1.7 1 3.4 1.3 5.1 1.5 6.6 2.4 13.6 2.4 20.7z"/><path class="st3" d="M-925.3-829.1v167.1M-981.6-828.4v163.6M-868.7-771.5h-163M-863.1-722h-168.6"/><circle class="st1" cx="-950" cy="-1241.7" r="90.4"/><path class="st6" d="M-925.4-1268.4c.6 2.3.9 4.6.9 6.9 0 2.2-.3 4.5-.9 6.9l-17.7-.3v38.5c0 4.5 2.1 6.7 6.3 6.7h9.1c1 2.9 1.5 5.7 1.5 8.3 0 2.6-.1 4.3-.4 5.1-6 .9-11.8 1.3-17.6 1.3-11.7 0-17.6-5.9-17.6-17.8v-42l-11.1.1c-.5-2-.7-4.2-.7-6.9 0-2.6.2-4.9.7-6.9l11.1.1v-10.5c0-4.3.8-7.3 2.3-9.1 1.6-1.8 4.2-2.6 8-2.6h7.3l1 .9v21.5l17.8-.2z"/><path class="st8" d="M-1004.2-1268.7h113.2M-1004.2-1195.6h113.2M-1004.2-1290.8h113.2"/><circle class="st1" cx="-335.9" cy="-274.3" r="90.4"/><path class="st9" d="M-351.2-254.2l8-8c.8-.8.7-2-.2-2.7-3.2-2.5-9.3-8.7-2.2-15.8l28.5-28.5c2.6-2.6 6-4.1 9.7-4 2.5.1 5.2.8 7.3 3.1 2.2 2.4 2.8 5.8 2 8.9-.7 2.6-2.2 6.1-5.7 9.7-.3.3-.5.8-.4 1.3l1.5 15.5c.1 1.3 1.7 1.9 2.7 1.1 4.9-4.3 16.1-15.3 17.5-28.3 1.1-10.1-3.6-18.6-12.5-23.1-10.1-5.1-22.4-3-30.6 4.8l-28.8 27c-4 3.8-6.8 8.7-7.8 14.1-1.2 6.7-.1 15.6 8.6 25 .5.6 1.7.6 2.4-.1zM-320.5-294.3l-8 8c-.8.8-.7 2 .2 2.7 3.2 2.5 9.3 8.7 2.2 15.8l-28.5 28.5c-2.6 2.6-6 4.1-9.7 4-2.5-.1-5.2-.8-7.3-3.1-2.2-2.4-2.8-5.8-2-8.9.7-2.6 2.2-6.1 5.7-9.7.3-.3.5-.8.4-1.3l-1.5-15.5c-.1-1.3-1.7-1.9-2.7-1.1-4.9 4.3-16.1 15.3-17.5 28.3-1.1 10.1 3.6 18.6 12.5 23.1 10.1 5.1 22.4 3 30.6-4.8l28.8-27c4-3.8 6.8-8.7 7.8-14.1 1.2-6.7.1-15.6-8.6-25-.5-.6-1.7-.6-2.4.1z"/><circle class="st1" cx="-950" cy="186.5" r="90.4"/><path class="st10" d="M-925.1 217.7c2.2 4.8 5.1 8.6 7 10.9.7.9 0 2.2-1.1 2.1-12.8-1-20.3-4.5-24.7-8-.3-.2-.6-.3-.9-.3-1.7.2-3.4.3-5.1.3-26.2 0-47.4-19.3-47.4-43 0-23.8 21.2-43 47.4-43s47.4 19.3 47.4 43c0 15.3-8.7 28.7-21.9 36.3-.7.4-1 1.1-.7 1.7z"/><circle class="st1" cx="-335.9" cy="-745.7" r="90.4"/><path class="st6" d="M-326.7-791.9c1.9 2.6 4.9 4.2 8.4 4.2 5.8 0 10.4-4.7 10.4-10.4s-4.7-10.4-10.4-10.4c-3.4 0-6.5 1.7-8.4 4.2 1.3 1.7 2.1 3.9 2.1 6.2s-.8 4.4-2.1 6.2zM-345-680.9c-3.1 0-5.6-2.5-5.6-5.6v-46.7c0-3.1 2.5-5.6 5.6-5.6 3.1 0 5.6 2.5 5.6 5.6v46.7c.1 3-2.5 5.6-5.6 5.6zM-329.7-764.1c1.1-.1 1.9-.6 1.9-1.7 0-3.2 1.9-2.7 3.8-2.5h.8c.7 0 1.2 3.1 1.5 7.4v26.5c0 .7.3 1.4.8 1.9.6.6 1.3.9 2.2.9h.4c.7 0 1.4-.3 1.9-.7v-.1h.1c.2-.2.5-.5.6-.8 0 0 0-.1.1-.1.1-.3.2-.7.2-1.1v-37.8c0-.5-.1-1-.2-1.4-2.3-7.4-8-9-12-9.2h-.4c-2.1.1-4 1.6-4.6 3.7l-2.4 8.8c-.8 3.3 1.9 6.6 5.3 6.2zM-328.2-680.9c-3.1 0-5.6-2.5-5.6-5.6v-46.7c0-3.1 2.5-5.6 5.6-5.6 3.1 0 5.6 2.5 5.6 5.6v46.7c0 3-2.5 5.6-5.6 5.6zM-327.3-731.4h-18.3c-2.6 0-4.8-2.1-4.8-4.8v-41.9c0-2.6 2.1-4.8 4.8-4.8h18.3c2.6 0 4.8 2.1 4.8 4.8v41.9c-.1 2.7-2.2 4.8-4.8 4.8z"/><circle class="st6" cx="-336.5" cy="-798.2" r="10.4"/><path class="st11" d="M-319.8-768.8"/><path class="st6" d="M-347.8-782.8c-.3 0-.5 0-.8.1h-.3c-4 .2-9.7 1.8-12 9.2-.1.5-.2.9-.2 1.4l-.6 35.6c0 .5.1 1 .2 1.5.4 1.2.1 2.8 3.2 2.8h.1v.1c0 .3.1.7.1.7h-.1v44.8c0 3.1-2.5 5.6-5.6 5.6-1.6 0-3-.6-4-1.7-1-1-1.7-2.4-1.7-4v-47.6c0-.3 0-.6.1-.9v-.3c-.1-.3-.1-.6-.1-.9v-32h-.6c-1.1 0-1.5 6.4-1.6 13.4-.2 7.6 0 15.9 0 17.6v2.7c0 1.6-1.3 3-3 3h-.4c-1.6 0-3-1.3-3-3v-36.4c0-.5.2-2.3.4-2.8 2.8-8.1 8-9 12-9.2h.3c.2 0 .5-.1.8-.1h16.8zM-346.4-791.9c-1.9 2.6-4.9 4.2-8.4 4.2-5.8 0-10.4-4.7-10.4-10.4s4.7-10.4 10.4-10.4c3.4 0 6.5 1.7 8.4 4.2-1.3 1.7-2.1 3.9-2.1 6.2s.8 4.4 2.1 6.2zM-371.5-754.7v17.6c0-1.8-.2-10.1 0-17.6zM-343.1-764c-1.1-.1-1.9-.6-1.9-1.7 0-3.2-1.9-2.7-3.8-2.5h-.8c-.7 0-1.2 3.1-1.5 7.4v26.5c0 .7-.3 1.4-.8 1.9-.6.6-1.3.9-2.2.9h-.4c-.7 0-1.4-.3-1.9-.7v-.1h-.1c-.2-.2-.5-.5-.6-.8 0 0 0-.1-.1-.1-.1-.3-.2-.7-.2-1.1v-37.8c0-.5.1-1 .2-1.4 2.3-7.4 8-9 12-9.2h.4c2.1.1 4 1.6 4.6 3.7l2.4 8.8c.8 3.2-1.9 6.5-5.3 6.2zM-358-732.1c-.1 0-.1-.1-.2-.2h.1c.1.1.1.2.1.2zM-324-782.8c.3 0 .5 0 .8.1h.3c4 .2 9.7 1.8 12 9.2.1.5.2.9.2 1.4l.6 35.6c0 .5-.1 1-.2 1.5-.4 1.2-.1 2.8-3.2 2.8h-.1v.1c0 .3-.1.7-.1.7h.1v44.8c0 3.1 2.5 5.6 5.6 5.6 1.6 0 3-.6 4-1.7 1-1 1.7-2.4 1.7-4v-47.6c0-.3 0-.6-.1-.9v-.3c.1-.3.1-.6.1-.9v-32h.6c1.1 0 1.5 6.4 1.6 13.4.2 7.6 0 15.9 0 17.6v2.7c0 1.6 1.3 3 3 3h.4c1.6 0 3-1.3 3-3v-36.4c0-.5-.2-2.3-.4-2.8-2.8-8.1-8-9-12-9.2h-.3c-.2 0-.5-.1-.8-.1h-16.8z"/><circle class="st1" cx="258.5" cy="-265.3" r="90.4"/><circle class="st6" cx="259.7" cy="-263.9" r="63.3"/><path class="st12" d="M194.2-296.4h132.7v75h-132.7z"/><path class="st0" d="M254.2-247.4c1.7-.9 3.7-1.4 6-1.4 1 0 1.9.1 2.7.2.8.1 1.8.5 3.2 1.2.7 1.5 1.1 3.1 1 4.7.2 1.4-.2 3-1 4.6-1.2.6-2.2 1-3.1 1.2-.8.1-1.7.2-2.8.2-2.3 0-4.3-.5-6-1.4-.5-1-.8-2.6-.8-4.6 0-2.1.3-3.7.8-4.7zm1.3-6.9l-1.8-35.1c3.1-2.3 7.6-3.4 13.2-3.4l.7 1-2.8 37.6c-.6.2-1.4.4-2.2.4-.8.1-1.7.1-2.6.1-.9 0-1.7 0-2.5-.1-.7-.2-1.4-.3-2-.5z"/><circle class="st1" cx="-335.9" cy="-1241.7" r="90.4"/><path class="st13" d="M-382.2-1274.8h94.2v59.1h-94.2z"/><path class="st6" d="M-288.1-1279.2h-94.3c-1.8 0-3.3 1.5-3.3 3.3v60.9c0 1.8 1.5 3.3 3.3 3.3h94.3c1.8 0 3.3-1.5 3.3-3.3v-60.9c-.1-1.8-1.5-3.3-3.3-3.3zm.2 63.6h-94.2v-59.1h94.2v59.1z"/><circle class="st6" cx="-335.3" cy="-1276.9" r=".9"/><path class="st6" d="M-275.9-1208h-51.8c.1.1.1.2.1.4 0 .5-.4.9-.9.9h-15c-.5 0-.9-.4-.9-.9 0-.1 0-.3.1-.4h-50.5c-.6 0-1 .5-1 1v1.8c0 .6.5 1 1 1h118.8c.6 0 1-.5 1-1v-1.8c.1-.6-.3-1-.9-1z"/><path class="st0" d="M-372.8-1269.9h36.6v46.7h-36.6zM-336.2-1269.9h36.6v46.7h-36.6z"/><path class="st6" d="M-344.5-1269.9v12.9l1.9-.6 1.5.6v-12.9z"/><path class="st14" d="M-367.4-1260.1h19M-367.4-1257.9h19M-367.4-1255.6h19M-367.4-1253.3h19M-367.4-1251h19M-367.4-1248.8h19M-367.4-1246.5h19M-367.4-1244.2h19M-367.4-1241.9h19M-367.4-1239.6h19M-367.4-1237.4h19M-367.4-1235.1h19M-367.4-1232.8h19M-367.4-1230.5h19M-367.4-1228.3h19M-328.3-1260.1h19.1M-328.3-1257.9h19.1M-328.3-1255.6h19.1M-328.3-1253.3h19.1M-328.3-1251h19.1M-328.3-1248.8h19.1M-328.3-1246.5h19.1M-328.3-1244.2h19.1M-328.3-1241.9h19.1M-328.3-1239.6h19.1M-328.3-1237.4h19.1M-328.3-1235.1h19.1M-328.3-1232.8h19.1M-328.3-1230.5h19.1M-328.3-1228.3h19.1"/><path class="st15" d="M-336.2-1269.9v46.7"/><circle class="st1" cx="258.5" cy="-745.7" r="90.4"/><path class="st16" d="M285.8-769.1c4.5.9 16-6.1 5-18.3 0 0-2.3-2.7-4.4-4.3-.8-.6-1.8.2-1.4 1.1.7 1.6 1.4 3.7.7 4.8-1.4 2.2-15.3 13.6.1 16.7z"/><path class="st6" d="M238.4-697.3s53.1-67.4 43-72-46.8 65.6-47.2 70.4c0 0-1.6 7 4.2 1.6z"/><circle class="st1" cx="258.5" cy="-1716.2" r="90.4"/><path class="st6" d="M254.5-1768v27.5c0 .7-.5 1.2-1.1 1.4-9.2 2.3-16.5 9.7-18.5 19.1-.1.7-.7 1.2-1.4 1.2h-27.8l-1.5-1.5c.3-26.9 22-48.6 48.8-49.1l1.5 1.4z"/><path class="st13" d="M284.8-1714.6c0 2-.2 3.9-.6 5.7-2.2 9.6-9.9 17.2-19.6 19.1-1.6.3-3.3.5-5 .5-1.7 0-3.4-.2-5-.5-9.7-2-17.4-9.5-19.6-19.1-.4-1.8-.7-3.7-.7-5.7 0-1.5.1-2.9.4-4.3 1.8-10.3 9.7-18.4 19.9-20.5 1.6-.3 3.3-.5 5-.5 1.7 0 3.4.2 5 .5 10.2 2 18.2 10.2 19.9 20.5.2 1.4.3 2.9.3 4.3z"/><path class="st6" d="M313.7-1720.3l-1.5 1.5h-26.7c-.7 0-1.3-.5-1.4-1.2-2.1-9.4-9.3-16.8-18.6-19.1-.7-.2-1.1-.7-1.1-1.4v-27.4c0-.8.7-1.5 1.5-1.4 26.4 1 47.5 22.5 47.8 49zM254.5-1688.6v27.3c-.6.6-.9.9-1.5 1.4-26.3-.5-47.6-21.3-48.8-47.4 0-.8.6-1.5 1.4-1.5h28.1c.7 0 1.2.4 1.4 1.1 2.4 8.7 9.4 15.5 18.2 17.7.7.1 1.2.7 1.2 1.4zM313.7-1707.4c-1.2 25.8-21.9 46.4-47.7 47.4-.8 0-1.5-.6-1.5-1.4v-27.2c0-.7.5-1.2 1.1-1.4 8.8-2.2 15.8-9 18.2-17.8.2-.6.7-1.1 1.4-1.1h27c.8 0 1.5.7 1.5 1.5z"/><circle class="st1" cx="258.5" cy="-1241.7" r="90.4"/><path class="st6" d="M292.7-1252c.6-2.4.8-4.9.8-7.4s-.3-5.1-.8-7.6l-16.3.3v-19.8l-.9-1h-8.3c-4.2 0-7.2 1-9 2.9-1.8 2-2.7 5.3-2.7 9.9v7.9l-9.1-.2v-19.5c0-4.7-.9-8.1-2.6-10-1.7-1.9-4.7-2.9-9-2.9h-8.3l-.8 1v81.4c0 6.6 1.3 11.4 3.9 14.4 2.6 3.1 7 4.6 13.2 4.6 2.3 0 14.5-.1 26-.3 7.8-.1 15.4-.3 19.1-.6h.4l.8-.1.6-.1 1.7-.2c.4-1.2.6-3.2.6-5.9s-.6-5.8-1.8-9.1h-7.7c-4 0-6-2.1-6-6.4v-31.5l16.2.2zm-40.3 37.6c-4 0-6-2.1-6-6.4v-31.2l9.1-.1v35.1c0 .9 0 1.8.1 2.6h-3.2z"/><circle class="st1" cx="-334.3" cy="186.7" r="88"/><circle class="st17" cx="-334.3" cy="186.7" r="61.4"/><path class="st18" d="M-353.9 150.2l64.1 36.9-64.1 37z"/><circle class="st1" cx="253" cy="187.7" r="89.7"/><path class="st6" d="M186 177.3v16.5c0 9.4 7.6 17 17 17h9.3c5 0 9.8 1.6 13.9 4.5l32.9 23.8c4.1 3 9.9 0 9.9-5.1v-93c0-4.7-5.2-7.4-9.1-4.8l-31.1 21.2c-4.4 3-9.5 4.6-14.8 4.6h-12.6c-8.6-.1-15.4 6.8-15.4 15.3z"/><path class="st19" d="M286 209.8c12.8-16.9 10.7-40-4.7-51.5M303.3 209.8c12.8-16.9 10.7-40-4.7-51.5"/></svg>