<svg xmlns="http://www.w3.org/2000/svg" width="70.2" height="68.4" viewBox="-270 362.6 70.2 68.4" enable-background="new -270 362.6 70.2 68.4"><style type="text/css">.st0{fill:none;stroke:#D4602B;stroke-width:1.28;stroke-miterlimit:10;}</style><path class="st0" d="M-227.1 384h-15.6c-2.7 0-5 2.2-5 5v15.6c0 2.7 2.2 5 5 5h15.5c2.7 0 5-2.2 5-5v-15.6c-.1-2.8-2.2-5-4.9-5zm1.4 2.9h.6v4.3h-4.3v-4.3h3.7zm-12.9 7.1c.8-1.1 2.1-1.8 3.7-1.8s2.8.8 3.7 1.8c.5.7.8 1.7.8 2.6 0 2.4-2 4.5-4.5 4.5-2.4 0-4.5-2-4.5-4.5 0-.9.3-1.8.8-2.6zm13.9 10.5c0 1.4-1.1 2.4-2.4 2.4h-15.6c-1.4 0-2.4-1.1-2.4-2.4v-10.4h3.8c-.3.8-.5 1.7-.5 2.6 0 3.8 3.1 6.9 6.9 6.9 3.8 0 6.9-3.1 6.9-6.9 0-.9-.2-1.8-.5-2.6h3.8v10.4z"/></svg>