<?xml version="1.0" encoding="utf-8"?>
<!-- Generator: Adobe Illustrator 19.1.0, SVG Export Plug-In . SVG Version: 6.00 Build 0)  -->
<!DOCTYPE svg PUBLIC "-//W3C//DTD SVG 1.1//EN" "http://www.w3.org/Graphics/SVG/1.1/DTD/svg11.dtd">
<svg version="1.1" id="Layer_1" xmlns="http://www.w3.org/2000/svg" xmlns:xlink="http://www.w3.org/1999/xlink" x="0px" y="0px"
	 width="302px" height="191px" viewBox="0 0 302 191" style="enable-background:new 0 0 302 191;" xml:space="preserve">
<style type="text/css">
	.st0{fill:#D4602B;}
</style>
<path class="st0" d="M56,142h5.4c1.6,4.4,2.4,8.9,2.4,13.3s-0.2,7.3-0.6,8.7c-8,1.3-15.1,2-21.4,2c-9.1,0-15.5-2.2-19.3-6.7
	c-3.8-4.5-5.7-11.5-5.7-21.1v-119l1.2-1.4h12.2c6.3,0,10.7,1.4,13.2,4.2c2.5,2.8,3.8,7.7,3.8,14.6v96C47.2,138.9,50.1,142,56,142z"
	/>
<path class="st0" d="M108.2,88.2V165c-2.3,0.4-4.7,0.7-7.4,0.9c-2.7,0.2-5.4,0.3-8.2,0.3c-2.8,0-5.6-0.1-8.3-0.3
	c-2.7-0.2-5.2-0.5-7.5-0.9V98.8c0-7.7-3.1-11.6-9.4-11.6h-3c-0.8-2.5-1.2-6.1-1.2-10.6c0-4.4,0.4-8.1,1.2-11.2
	c3.5-0.3,6.7-0.5,9.6-0.7c2.9-0.2,5.6-0.3,8-0.3h4.4c6.8,0,12.1,2.1,16,6.4C106.3,75.1,108.2,80.9,108.2,88.2z M73.2,25
	c3.9-2.1,8.9-3.2,15-3.2c6.3,0,11.1,1.1,14.6,3.2c1.6,3.6,2.4,7.5,2.4,11.6c0,4.1-0.8,8-2.4,11.6c-3.9,2-8.9,3-15.2,3
	c-6.3,0-11.1-1-14.4-3c-1.6-3.6-2.4-7.5-2.4-11.6C70.8,32.5,71.6,28.6,73.2,25z"/>
<path class="st0" d="M188.2,65c0.8,3.7,1.2,7.4,1.2,11.1c0,3.7-0.4,7.3-1.2,10.9l-23.8-0.4v46c0,6.3,2.9,9.4,8.8,9.4h11.2
	c1.7,4.8,2.6,9.3,2.6,13.3s-0.3,6.9-0.8,8.7c-9.9,1.3-18.9,2-27.2,2c-16.8,0-25.2-9.3-25.2-27.9V86.8L118.2,87
	c-0.9-3.3-1.4-6.9-1.4-10.8c0-3.9,0.5-7.6,1.4-11.2l15.6,0.4V53.8c0-6.8,1.3-11.6,3.9-14.5c2.6-2.9,7-4.3,13.1-4.3H163l1.4,1.4v29
	L188.2,65z"/>
<path class="st0" d="M269.2,65c0.8,3.7,1.2,7.4,1.2,11.1c0,3.7-0.4,7.3-1.2,10.9l-23.8-0.4v46c0,6.3,2.9,9.4,8.8,9.4h11.2
	c1.7,4.8,2.6,9.3,2.6,13.3s-0.3,6.9-0.8,8.7c-9.9,1.3-18.9,2-27.2,2c-16.8,0-25.2-9.3-25.2-27.9V86.8L199.2,87
	c-0.9-3.3-1.4-6.9-1.4-10.8c0-3.9,0.5-7.6,1.4-11.2l15.6,0.4V53.8c0-6.8,1.3-11.6,3.9-14.5c2.6-2.9,7-4.3,13.1-4.3H244l1.4,1.4v29
	L269.2,65z"/>
<g>
</g>
<g>
</g>
<g>
</g>
<g>
</g>
<g>
</g>
<g>
</g>
<g>
</g>
<g>
</g>
<g>
</g>
<g>
</g>
<g>
</g>
<g>
</g>
<g>
</g>
<g>
</g>
<g>
</g>
</svg>
