<svg xmlns="http://www.w3.org/2000/svg" width="302" height="191" viewBox="0 0 302 191"><style type="text/css">.st0{fill:#D4602B;}</style><path class="st0" d="M56 142h5.4c1.6 4.4 2.4 8.9 2.4 13.3s-.2 7.3-.6 8.7c-8 1.3-15.1 2-21.4 2-9.1 0-15.5-2.2-19.3-6.7-3.8-4.5-5.7-11.5-5.7-21.1v-119l1.2-1.4h12.2c6.3 0 10.7 1.4 13.2 4.2 2.5 2.8 3.8 7.7 3.8 14.6v96c0 6.3 2.9 9.4 8.8 9.4zm52.2-53.8v76.8c-2.3.4-4.7.7-7.4.9-2.7.2-5.4.3-8.2.3-2.8 0-5.6-.1-8.3-.3-2.7-.2-5.2-.5-7.5-.9v-66.2c0-7.7-3.1-11.6-9.4-11.6h-3c-.8-2.5-1.2-6.1-1.2-10.6 0-4.4.4-8.1 1.2-11.2 3.5-.3 6.7-.5 9.6-.7 2.9-.2 5.6-.3 8-.3h4.4c6.8 0 12.1 2.1 16 6.4 3.9 4.3 5.8 10.1 5.8 17.4zm-35-63.2c3.9-2.1 8.9-3.2 15-3.2 6.3 0 11.1 1.1 14.6 3.2 1.6 3.6 2.4 7.5 2.4 11.6s-.8 8-2.4 11.6c-3.9 2-8.9 3-15.2 3-6.3 0-11.1-1-14.4-3-1.6-3.6-2.4-7.5-2.4-11.6s.8-8 2.4-11.6zm115 40c.8 3.7 1.2 7.4 1.2 11.1 0 3.7-.4 7.3-1.2 10.9l-23.8-.4v46c0 6.3 2.9 9.4 8.8 9.4h11.2c1.7 4.8 2.6 9.3 2.6 13.3s-.3 6.9-.8 8.7c-9.9 1.3-18.9 2-27.2 2-16.8 0-25.2-9.3-25.2-27.9v-51.3l-15.6.2c-.9-3.3-1.4-6.9-1.4-10.8 0-3.9.5-7.6 1.4-11.2l15.6.4v-11.6c0-6.8 1.3-11.6 3.9-14.5 2.6-2.9 7-4.3 13.1-4.3h12.2l1.4 1.4v29l23.8-.4zm81 0c.8 3.7 1.2 7.4 1.2 11.1 0 3.7-.4 7.3-1.2 10.9l-23.8-.4v46c0 6.3 2.9 9.4 8.8 9.4h11.2c1.7 4.8 2.6 9.3 2.6 13.3s-.3 6.9-.8 8.7c-9.9 1.3-18.9 2-27.2 2-16.8 0-25.2-9.3-25.2-27.9v-51.3l-15.6.2c-.9-3.3-1.4-6.9-1.4-10.8 0-3.9.5-7.6 1.4-11.2l15.6.4v-11.6c0-6.8 1.3-11.6 3.9-14.5 2.6-2.9 7-4.3 13.1-4.3h12.2l1.4 1.4v29l23.8-.4z"/></svg>