<?xml version="1.0" encoding="utf-8"?>
<!-- Generator: Adobe Illustrator 19.1.0, SVG Export Plug-In . SVG Version: 6.00 Build 0)  -->
<!DOCTYPE svg PUBLIC "-//W3C//DTD SVG 1.1//EN" "http://www.w3.org/Graphics/SVG/1.1/DTD/svg11.dtd">
<svg version="1.1" id="Layer_1" xmlns="http://www.w3.org/2000/svg" xmlns:xlink="http://www.w3.org/1999/xlink" x="0px" y="0px"
	 width="73.3px" height="58.7px" viewBox="0 0 73.3 58.7" style="enable-background:new 0 0 73.3 58.7;" xml:space="preserve">
<style type="text/css">
	.st0{fill:#91B1D3;}
</style>
<path class="st0" d="M53.2,22.1H19c-1.6,0-2.9-1.3-2.9-2.9v0c0-1.6,1.3-2.9,2.9-2.9h34.1c1.6,0,2.9,1.3,2.9,2.9v0
	C56.1,20.7,54.8,22.1,53.2,22.1z"/>
<path class="st0" d="M53.2,32.5H19c-1.6,0-2.9-1.3-2.9-2.9v0c0-1.6,1.3-2.9,2.9-2.9h34.1c1.6,0,2.9,1.3,2.9,2.9v0
	C56.1,31.1,54.8,32.5,53.2,32.5z"/>
<path class="st0" d="M53.2,43.2H19c-1.6,0-2.9-1.3-2.9-2.9v0c0-1.6,1.3-2.9,2.9-2.9h34.1c1.6,0,2.9,1.3,2.9,2.9v0
	C56.1,41.9,54.8,43.2,53.2,43.2z"/>
<g>
</g>
<g>
</g>
<g>
</g>
<g>
</g>
<g>
</g>
<g>
</g>
<g>
</g>
<g>
</g>
<g>
</g>
<g>
</g>
<g>
</g>
<g>
</g>
<g>
</g>
<g>
</g>
<g>
</g>
</svg>
