<svg xmlns="http://www.w3.org/2000/svg" width="73.3" height="58.7" viewBox="0 0 73.3 58.7"><style type="text/css">.st0{fill:#D4602B;}</style><path class="st0" d="M65.7 40.6c1 0 1.8.8 1.8 1.8s-.8 1.8-1.8 1.8h-59.3c-1 0-1.8-.8-1.8-1.8s.8-1.8 1.8-1.8h59.3m0-.5h-59.3c-1.3 0-2.3 1.1-2.3 2.3 0 1.3 1.1 2.3 2.3 2.3h59.3c1.3 0 2.3-1.1 2.3-2.3.1-1.3-1-2.3-2.3-2.3zM65.7 27.5c1 0 1.8.8 1.8 1.8s-.8 1.8-1.8 1.8h-59.3c-1 0-1.8-.8-1.8-1.8s.8-1.8 1.8-1.8h59.3m0-.5h-59.3c-1.3 0-2.3 1.1-2.3 2.3 0 1.3 1.1 2.3 2.3 2.3h59.3c1.3 0 2.3-1.1 2.3-2.3.1-1.3-1-2.3-2.3-2.3zM65.7 14.3c1 0 1.8.8 1.8 1.8s-.7 1.9-1.8 1.9h-59.3c-1 0-1.8-.8-1.8-1.8s.8-1.8 1.8-1.8h59.3m0-.6h-59.3c-1.3 0-2.3 1.1-2.3 2.3 0 1.3 1.1 2.3 2.3 2.3h59.3c1.3 0 2.3-1.1 2.3-2.3.1-1.2-1-2.3-2.3-2.3z"/></svg>