<svg xmlns="http://www.w3.org/2000/svg" width="73.3" height="58.7" viewBox="0 0 73.3 58.7"><style type="text/css">.st0{fill:#D4602B;}</style><path class="st0" d="M18.3 8.3c.3 0 .6.1.9.4l14.5 14.5c.1.1.2.1.4.1s.3 0 .4-.1l14.4-14.6c.2-.2.6-.4.9-.4s.7.1.9.4c.2.3.3.6.3.9 0 .3-.1.7-.4.9l-14.4 14.5c-.2.2-.2.5 0 .7l14.5 14.5c.5.5.5 1.3 0 1.8-.2.2-.6.4-.9.4s-.7-.1-.9-.4l-14.5-14.5c-.1-.1-.2-.1-.4-.1s-.3 0-.4.1l-14.4 14.5c-.2.2-.6.4-.9.4s-.6-.1-.9-.4c-.2-.3-.4-.6-.4-.9 0-.3.1-.7.4-.9l14.5-14.5c.2-.2.2-.5 0-.7l-14.5-14.5c-.5-.5-.5-1.3 0-1.8.2-.2.6-.3.9-.3m0-.5c-.5 0-.9.2-1.2.5-.7.7-.7 1.8 0 2.5l14.5 14.5-14.5 14.4c-.3.3-.5.8-.5 1.2 0 .4.2.9.5 1.2.3.3.8.5 1.2.5.5 0 .9-.2 1.2-.5l14.5-14.4 14.5 14.5c.3.3.8.5 1.2.5.5 0 .9-.2 1.2-.5.7-.7.7-1.8 0-2.5l-14.4-14.4 14.5-14.5c.3-.3.5-.8.5-1.2 0-.4-.2-.9-.5-1.2-.3-.3-.8-.5-1.2-.5s-.9.2-1.2.5l-14.6 14.4-14.5-14.5c-.3-.4-.8-.5-1.2-.5z"/></svg>