<svg xmlns="http://www.w3.org/2000/svg" width="499" height="373" viewBox="0 0 499 373"><style type="text/css">.st0{fill:#FFFFFF;} .st1{opacity:0.3;fill:#92B2D3;} .st2{fill:none;stroke:#DB7C4A;stroke-width:2;stroke-linecap:round;stroke-linejoin:round;stroke-miterlimit:10;} .st3{fill:none;stroke:#DB7C4A;stroke-width:3;stroke-linecap:round;stroke-linejoin:round;stroke-miterlimit:10;} .st4{fill:none;stroke:#DB7C4A;stroke-width:5;stroke-linecap:round;stroke-linejoin:round;stroke-miterlimit:10;} .st5{fill:none;stroke:#DB7C4A;stroke-width:3.9;stroke-linecap:round;stroke-linejoin:round;stroke-miterlimit:10;} .st6{fill:#DB7C4A;} .st7{fill:#92B2D3;} .st8{fill:none;stroke:#FFFFFF;stroke-width:2;stroke-linecap:round;stroke-linejoin:round;stroke-miterlimit:10;} .st9{fill:none;stroke:#D3602A;stroke-width:3;stroke-miterlimit:10;} .st10{fill:#FFFFFF;stroke:#D3602A;stroke-width:3;stroke-miterlimit:10;} .st11{fill:#DB7C4A;stroke:#231F20;stroke-width:0.3966;stroke-miterlimit:10;} .st12{fill:none;} .st13{fill:#F2D1BC;} .st14{fill:none;stroke:#000000;stroke-width:0.135;stroke-miterlimit:10;} .st15{fill:none;stroke:#92B2D3;stroke-width:0.72;stroke-miterlimit:10;} .st16{fill:#DB7C4A;stroke:#DB7C4A;stroke-width:0.275;stroke-linecap:round;stroke-linejoin:round;stroke-miterlimit:10;} .st17{fill:none;stroke:#DB7C4A;stroke-width:5.1714;stroke-linecap:round;stroke-linejoin:round;stroke-miterlimit:10;} .st18{fill:#D3602A;} .st19{fill:none;stroke:#D3602A;stroke-width:5;stroke-linecap:round;stroke-linejoin:round;stroke-miterlimit:10;}</style><path class="st0" d="M-588.6 11.5h709.8v1138.8h-709.8z"/><circle class="st1" cx="249.5" cy="186.5" r="90.4"/><path class="st6" d="M276.9 214.7l-56.1-42.7c-1.1-.8-1.3-2.4-.5-3.5l37.8-49.7c.8-1.1 2.4-1.3 3.5-.5l56.1 42.7c1.1.8 1.3 2.4.5 3.5l-37.8 49.7c-.9 1.1-2.4 1.3-3.5.5z"/><path class="st0" d="M261.5 128l45.6 34.7c1.1.8 1.3 2.4.5 3.5l-22.6 29.7c-.8 1.1-2.4 1.3-3.5.5l-45.6-34.7c-1.1-.8-1.3-2.4-.5-3.5l22.5-29.6c.9-1.2 2.5-1.4 3.6-.6z"/><path class="st6" d="M266.7 229.2h-70.5c-1.4 0-2.5-1.1-2.5-2.5v-62.4c0-1.4 1.1-2.5 2.5-2.5h70.5c1.4 0 2.5 1.1 2.5 2.5v62.4c0 1.4-1.1 2.5-2.5 2.5z"/><path class="st0" d="M202 169.6h57.3c1.4 0 2.5 1.1 2.5 2.5v37.2c0 1.4-1.1 2.5-2.5 2.5h-57.3c-1.4 0-2.5-1.1-2.5-2.5v-37.2c.1-1.4 1.2-2.5 2.5-2.5z"/></svg>