<svg xmlns="http://www.w3.org/2000/svg" width="499" height="373" viewBox="0 0 499 373"><style type="text/css">.st0{fill:#FFFFFF;} .st1{opacity:0.3;fill:#92B2D3;} .st2{fill:none;stroke:#DB7C4A;stroke-width:2;stroke-linecap:round;stroke-linejoin:round;stroke-miterlimit:10;} .st3{fill:none;stroke:#DB7C4A;stroke-width:3;stroke-linecap:round;stroke-linejoin:round;stroke-miterlimit:10;} .st4{fill:none;stroke:#DB7C4A;stroke-width:5;stroke-linecap:round;stroke-linejoin:round;stroke-miterlimit:10;} .st5{fill:none;stroke:#DB7C4A;stroke-width:3.9;stroke-linecap:round;stroke-linejoin:round;stroke-miterlimit:10;} .st6{fill:#DB7C4A;} .st7{fill:#92B2D3;} .st8{fill:none;stroke:#FFFFFF;stroke-width:2;stroke-linecap:round;stroke-linejoin:round;stroke-miterlimit:10;} .st9{fill:none;stroke:#D3602A;stroke-width:3;stroke-miterlimit:10;} .st10{fill:#FFFFFF;stroke:#D3602A;stroke-width:3;stroke-miterlimit:10;} .st11{fill:#DB7C4A;stroke:#231F20;stroke-width:0.3966;stroke-miterlimit:10;} .st12{fill:none;} .st13{fill:#F2D1BC;} .st14{fill:none;stroke:#000000;stroke-width:0.135;stroke-miterlimit:10;} .st15{fill:none;stroke:#92B2D3;stroke-width:0.72;stroke-miterlimit:10;} .st16{fill:#DB7C4A;stroke:#DB7C4A;stroke-width:0.275;stroke-linecap:round;stroke-linejoin:round;stroke-miterlimit:10;}</style><path class="st0" d="M-588.6-463h709.8v1138.8h-709.8z"/><circle class="st1" cx="249.5" cy="186.5" r="90.4"/><path class="st13" d="M203.2 153.4h94.2v59.1h-94.2z"/><path class="st6" d="M297.2 149h-94.2c-1.8 0-3.3 1.5-3.3 3.3v60.9c0 1.8 1.5 3.3 3.3 3.3h94.3c1.8 0 3.3-1.5 3.3-3.3v-60.9c-.1-1.8-1.6-3.3-3.4-3.3zm.2 63.5h-94.2v-59.1h94.2v59.1z"/><circle class="st6" cx="250.1" cy="151.3" r=".9"/><path class="st6" d="M309.5 220.2h-51.8c.1.1.1.2.1.4 0 .5-.4.9-.9.9h-15c-.5 0-.9-.4-.9-.9 0-.1 0-.3.1-.4h-50.5c-.6 0-1 .5-1 1v1.8c0 .6.5 1 1 1h118.8c.6 0 1-.5 1-1v-1.8c.1-.6-.3-1-.9-1z"/><path class="st0" d="M212.6 158.3h36.6v46.7h-36.6zM249.2 158.3h36.6v46.7h-36.6z"/><path class="st6" d="M240.8 158.3v12.8l2-.5 1.4.5v-12.8z"/><path class="st14" d="M217.9 168h19.1M217.9 170.3h19.1M217.9 172.6h19.1M217.9 174.9h19.1M217.9 177.2h19.1M217.9 179.4h19.1M217.9 181.7h19.1M217.9 184h19.1M217.9 186.3h19.1M217.9 188.5h19.1M217.9 190.8h19.1M217.9 193.1h19.1M217.9 195.4h19.1M217.9 197.6h19.1M217.9 199.9h19.1M257.1 168h19M257.1 170.3h19M257.1 172.6h19M257.1 174.9h19M257.1 177.2h19M257.1 179.4h19M257.1 181.7h19M257.1 184h19M257.1 186.3h19M257.1 188.5h19M257.1 190.8h19M257.1 193.1h19M257.1 195.4h19M257.1 197.6h19M257.1 199.9h19"/><path class="st15" d="M249.2 158.3v46.7"/></svg>