<svg xmlns="http://www.w3.org/2000/svg" width="70.2" height="68.4" viewBox="0 0 70.2 68.4"><style type="text/css">.st0{fill:none;stroke:#D4602B;stroke-miterlimit:10;}</style><path class="st0" d="M45.9 28.4c-.9.4-1.9.7-2.9.8 1-.6 1.8-1.6 2.2-2.8-1 .6-2.1 1-3.2 1.2-.9-1-2.2-1.6-3.7-1.6-2.8 0-5.1 2.3-5.1 5.1 0 .4 0 .8.1 1.2-4.1-.3-7.8-2.3-10.3-5.4-.4.7-.7 1.6-.7 2.5 0 1.8.9 3.3 2.2 4.2-.8 0-1.6-.3-2.3-.6v.1c0 2.4 1.7 4.5 4.1 5-.4.1-.9.2-1.3.2-.3 0-.6 0-1-.1.6 2 2.5 3.5 4.7 3.5-1.7 1.4-3.9 2.2-6.3 2.2-.4 0-.8 0-1.2-.1 2.2 1.4 4.9 2.3 7.7 2.3 9.3 0 14.4-7.7 14.4-14.4v-.7c1-.7 1.9-1.6 2.6-2.6z"/></svg>