<svg xmlns="http://www.w3.org/2000/svg" width="640" height="480" viewBox="0 0 640 480"><style type="text/css">.st0{fill:#FFFFFF;}</style><path class="st0" d="M0 0h640v480h-640z"/><circle cx="103.6" cy="222.7" r="63.6"/><path class="st0" d="M46.9 207.7l6.1 20.3c1 3.3 1.9 6.3 2.5 9.3h.2c.7-3 1.6-6 2.7-9.3l6.1-20.3h5.9l-12.3 36.2h-5.4l-11.9-36.2h6.1zM103.5 225.5c0 13.4-8 19.2-15.6 19.2-8.5 0-15-7.2-15-18.6 0-12.1 6.9-19.2 15.5-19.2 9 0 15.1 7.6 15.1 18.6zm-24.8.4c0 7.9 3.9 13.9 9.5 13.9 5.4 0 9.5-5.9 9.5-14 0-6.1-2.7-13.9-9.4-13.9s-9.6 7.1-9.6 14zM117 197.6c.1 2.2-1.4 4-3.6 4-2 0-3.4-1.8-3.4-4 0-2.3 1.5-4.1 3.6-4.1s3.4 1.8 3.4 4.1zm-6.3 46.3v-36.2h5.7v36.2h-5.7zM152.8 190.8v43.7c0 3.2.1 6.9.3 9.3h-5.1l-.3-6.3h-.1c-1.7 4-5.6 7.1-10.7 7.1-7.6 0-13.4-7.4-13.4-18.4-.1-12 6.4-19.4 14-19.4 4.8 0 8 2.6 9.4 5.5h.1v-21.6h5.8zm-5.7 31.7c0-.8-.1-1.9-.3-2.8-.8-4.2-3.9-7.6-8.2-7.6-5.9 0-9.4 6-9.4 14 0 7.3 3.1 13.4 9.2 13.4 3.8 0 7.3-2.9 8.3-7.8.2-.9.3-1.8.3-2.8v-6.4zM0 222.7h190.7v9.8h-190.7z"/></svg>